<mxfile host="app.diagrams.net" modified="2021-07-13T15:46:57.284Z" agent="5.0 (Macintosh; Intel Mac OS X 10_15_7) AppleWebKit/537.36 (KHTML, like Gecko) Chrome/91.0.4472.114 Safari/537.36" etag="EapBiqa4H7wKpWbkuKNo" version="14.8.5" type="github">
  <diagram id="R2lEEEUBdFMjLlhIrx00" name="Page-1">
    <mxGraphModel dx="946" dy="451" grid="1" gridSize="10" guides="1" tooltips="1" connect="1" arrows="1" fold="1" page="1" pageScale="1" pageWidth="583" pageHeight="827" math="0" shadow="0" extFonts="Permanent Marker^https://fonts.googleapis.com/css?family=Permanent+Marker">
      <root>
        <mxCell id="0" />
        <mxCell id="1" parent="0" />
        <mxCell id="C-vyLk0tnHw3VtMMgP7b-23" value="Customers" style="shape=table;startSize=30;container=1;collapsible=1;childLayout=tableLayout;fixedRows=1;rowLines=0;fontStyle=1;align=center;resizeLast=1;" parent="1" vertex="1">
          <mxGeometry x="420" y="130" width="250" height="230" as="geometry" />
        </mxCell>
        <mxCell id="C-vyLk0tnHw3VtMMgP7b-24" value="" style="shape=partialRectangle;collapsible=0;dropTarget=0;pointerEvents=0;fillColor=none;points=[[0,0.5],[1,0.5]];portConstraint=eastwest;top=0;left=0;right=0;bottom=1;" parent="C-vyLk0tnHw3VtMMgP7b-23" vertex="1">
          <mxGeometry y="30" width="250" height="30" as="geometry" />
        </mxCell>
        <mxCell id="C-vyLk0tnHw3VtMMgP7b-25" value="PK" style="shape=partialRectangle;overflow=hidden;connectable=0;fillColor=none;top=0;left=0;bottom=0;right=0;fontStyle=1;" parent="C-vyLk0tnHw3VtMMgP7b-24" vertex="1">
          <mxGeometry width="30" height="30" as="geometry" />
        </mxCell>
        <mxCell id="C-vyLk0tnHw3VtMMgP7b-26" value="customer_id int NOT NULL " style="shape=partialRectangle;overflow=hidden;connectable=0;fillColor=none;top=0;left=0;bottom=0;right=0;align=left;spacingLeft=6;fontStyle=5;" parent="C-vyLk0tnHw3VtMMgP7b-24" vertex="1">
          <mxGeometry x="30" width="220" height="30" as="geometry" />
        </mxCell>
        <mxCell id="C-vyLk0tnHw3VtMMgP7b-27" value="" style="shape=partialRectangle;collapsible=0;dropTarget=0;pointerEvents=0;fillColor=none;points=[[0,0.5],[1,0.5]];portConstraint=eastwest;top=0;left=0;right=0;bottom=0;" parent="C-vyLk0tnHw3VtMMgP7b-23" vertex="1">
          <mxGeometry y="60" width="250" height="30" as="geometry" />
        </mxCell>
        <mxCell id="C-vyLk0tnHw3VtMMgP7b-28" value="" style="shape=partialRectangle;overflow=hidden;connectable=0;fillColor=none;top=0;left=0;bottom=0;right=0;" parent="C-vyLk0tnHw3VtMMgP7b-27" vertex="1">
          <mxGeometry width="30" height="30" as="geometry" />
        </mxCell>
        <mxCell id="C-vyLk0tnHw3VtMMgP7b-29" value="username" style="shape=partialRectangle;overflow=hidden;connectable=0;fillColor=none;top=0;left=0;bottom=0;right=0;align=left;spacingLeft=6;" parent="C-vyLk0tnHw3VtMMgP7b-27" vertex="1">
          <mxGeometry x="30" width="220" height="30" as="geometry" />
        </mxCell>
        <mxCell id="yMSQ8i4fZYmCcwF7Yy7f-1" value="Products" style="shape=table;startSize=30;container=1;collapsible=1;childLayout=tableLayout;fixedRows=1;rowLines=0;fontStyle=1;align=center;resizeLast=1;" vertex="1" parent="1">
          <mxGeometry x="420" y="430" width="250" height="190" as="geometry" />
        </mxCell>
        <mxCell id="yMSQ8i4fZYmCcwF7Yy7f-2" value="" style="shape=partialRectangle;collapsible=0;dropTarget=0;pointerEvents=0;fillColor=none;top=0;left=0;bottom=1;right=0;points=[[0,0.5],[1,0.5]];portConstraint=eastwest;" vertex="1" parent="yMSQ8i4fZYmCcwF7Yy7f-1">
          <mxGeometry y="30" width="250" height="30" as="geometry" />
        </mxCell>
        <mxCell id="yMSQ8i4fZYmCcwF7Yy7f-3" value="PK" style="shape=partialRectangle;connectable=0;fillColor=none;top=0;left=0;bottom=0;right=0;fontStyle=1;overflow=hidden;" vertex="1" parent="yMSQ8i4fZYmCcwF7Yy7f-2">
          <mxGeometry width="30" height="30" as="geometry" />
        </mxCell>
        <mxCell id="yMSQ8i4fZYmCcwF7Yy7f-4" value="product_id" style="shape=partialRectangle;connectable=0;fillColor=none;top=0;left=0;bottom=0;right=0;align=left;spacingLeft=6;fontStyle=5;overflow=hidden;" vertex="1" parent="yMSQ8i4fZYmCcwF7Yy7f-2">
          <mxGeometry x="30" width="220" height="30" as="geometry" />
        </mxCell>
        <mxCell id="yMSQ8i4fZYmCcwF7Yy7f-5" value="" style="shape=partialRectangle;collapsible=0;dropTarget=0;pointerEvents=0;fillColor=none;top=0;left=0;bottom=0;right=0;points=[[0,0.5],[1,0.5]];portConstraint=eastwest;" vertex="1" parent="yMSQ8i4fZYmCcwF7Yy7f-1">
          <mxGeometry y="60" width="250" height="30" as="geometry" />
        </mxCell>
        <mxCell id="yMSQ8i4fZYmCcwF7Yy7f-6" value="" style="shape=partialRectangle;connectable=0;fillColor=none;top=0;left=0;bottom=0;right=0;editable=1;overflow=hidden;" vertex="1" parent="yMSQ8i4fZYmCcwF7Yy7f-5">
          <mxGeometry width="30" height="30" as="geometry" />
        </mxCell>
        <mxCell id="yMSQ8i4fZYmCcwF7Yy7f-7" value="product_name" style="shape=partialRectangle;connectable=0;fillColor=none;top=0;left=0;bottom=0;right=0;align=left;spacingLeft=6;overflow=hidden;" vertex="1" parent="yMSQ8i4fZYmCcwF7Yy7f-5">
          <mxGeometry x="30" width="220" height="30" as="geometry" />
        </mxCell>
        <mxCell id="yMSQ8i4fZYmCcwF7Yy7f-8" value="" style="shape=partialRectangle;collapsible=0;dropTarget=0;pointerEvents=0;fillColor=none;top=0;left=0;bottom=0;right=0;points=[[0,0.5],[1,0.5]];portConstraint=eastwest;" vertex="1" parent="yMSQ8i4fZYmCcwF7Yy7f-1">
          <mxGeometry y="90" width="250" height="30" as="geometry" />
        </mxCell>
        <mxCell id="yMSQ8i4fZYmCcwF7Yy7f-9" value="" style="shape=partialRectangle;connectable=0;fillColor=none;top=0;left=0;bottom=0;right=0;editable=1;overflow=hidden;" vertex="1" parent="yMSQ8i4fZYmCcwF7Yy7f-8">
          <mxGeometry width="30" height="30" as="geometry" />
        </mxCell>
        <mxCell id="yMSQ8i4fZYmCcwF7Yy7f-10" value="price" style="shape=partialRectangle;connectable=0;fillColor=none;top=0;left=0;bottom=0;right=0;align=left;spacingLeft=6;overflow=hidden;" vertex="1" parent="yMSQ8i4fZYmCcwF7Yy7f-8">
          <mxGeometry x="30" width="220" height="30" as="geometry" />
        </mxCell>
        <mxCell id="yMSQ8i4fZYmCcwF7Yy7f-14" value="" style="shape=partialRectangle;collapsible=0;dropTarget=0;pointerEvents=0;fillColor=none;points=[[0,0.5],[1,0.5]];portConstraint=eastwest;top=0;left=0;right=0;bottom=0;" vertex="1" parent="1">
          <mxGeometry x="420" y="220" width="250" height="30" as="geometry" />
        </mxCell>
        <mxCell id="yMSQ8i4fZYmCcwF7Yy7f-15" value="" style="shape=partialRectangle;overflow=hidden;connectable=0;fillColor=none;top=0;left=0;bottom=0;right=0;" vertex="1" parent="yMSQ8i4fZYmCcwF7Yy7f-14">
          <mxGeometry width="30" height="30" as="geometry" />
        </mxCell>
        <mxCell id="yMSQ8i4fZYmCcwF7Yy7f-16" value="password" style="shape=partialRectangle;overflow=hidden;connectable=0;fillColor=none;top=0;left=0;bottom=0;right=0;align=left;spacingLeft=6;" vertex="1" parent="yMSQ8i4fZYmCcwF7Yy7f-14">
          <mxGeometry x="30" width="220" height="30" as="geometry" />
        </mxCell>
        <mxCell id="yMSQ8i4fZYmCcwF7Yy7f-17" value="" style="shape=partialRectangle;collapsible=0;dropTarget=0;pointerEvents=0;fillColor=none;points=[[0,0.5],[1,0.5]];portConstraint=eastwest;top=0;left=0;right=0;bottom=0;" vertex="1" parent="1">
          <mxGeometry x="420" y="280" width="250" height="30" as="geometry" />
        </mxCell>
        <mxCell id="yMSQ8i4fZYmCcwF7Yy7f-18" value="" style="shape=partialRectangle;overflow=hidden;connectable=0;fillColor=none;top=0;left=0;bottom=0;right=0;" vertex="1" parent="yMSQ8i4fZYmCcwF7Yy7f-17">
          <mxGeometry width="30" height="30" as="geometry" />
        </mxCell>
        <mxCell id="yMSQ8i4fZYmCcwF7Yy7f-19" value="nickname" style="shape=partialRectangle;overflow=hidden;connectable=0;fillColor=none;top=0;left=0;bottom=0;right=0;align=left;spacingLeft=6;" vertex="1" parent="yMSQ8i4fZYmCcwF7Yy7f-17">
          <mxGeometry x="30" width="220" height="30" as="geometry" />
        </mxCell>
        <mxCell id="yMSQ8i4fZYmCcwF7Yy7f-21" value="" style="shape=partialRectangle;collapsible=0;dropTarget=0;pointerEvents=0;fillColor=none;top=0;left=0;bottom=0;right=0;points=[[0,0.5],[1,0.5]];portConstraint=eastwest;" vertex="1" parent="1">
          <mxGeometry x="420" y="550" width="250" height="30" as="geometry" />
        </mxCell>
        <mxCell id="yMSQ8i4fZYmCcwF7Yy7f-22" value="" style="shape=partialRectangle;connectable=0;fillColor=none;top=0;left=0;bottom=0;right=0;editable=1;overflow=hidden;" vertex="1" parent="yMSQ8i4fZYmCcwF7Yy7f-21">
          <mxGeometry width="30" height="30" as="geometry" />
        </mxCell>
        <mxCell id="yMSQ8i4fZYmCcwF7Yy7f-23" value="link" style="shape=partialRectangle;connectable=0;fillColor=none;top=0;left=0;bottom=0;right=0;align=left;spacingLeft=6;overflow=hidden;" vertex="1" parent="yMSQ8i4fZYmCcwF7Yy7f-21">
          <mxGeometry x="30" width="220" height="30" as="geometry" />
        </mxCell>
        <mxCell id="yMSQ8i4fZYmCcwF7Yy7f-28" value="" style="shape=partialRectangle;collapsible=0;dropTarget=0;pointerEvents=0;fillColor=none;points=[[0,0.5],[1,0.5]];portConstraint=eastwest;top=0;left=0;right=0;bottom=0;" vertex="1" parent="1">
          <mxGeometry x="420" y="250" width="250" height="30" as="geometry" />
        </mxCell>
        <mxCell id="yMSQ8i4fZYmCcwF7Yy7f-29" value="" style="shape=partialRectangle;overflow=hidden;connectable=0;fillColor=none;top=0;left=0;bottom=0;right=0;" vertex="1" parent="yMSQ8i4fZYmCcwF7Yy7f-28">
          <mxGeometry width="30" height="30" as="geometry" />
        </mxCell>
        <mxCell id="yMSQ8i4fZYmCcwF7Yy7f-30" value="email" style="shape=partialRectangle;overflow=hidden;connectable=0;fillColor=none;top=0;left=0;bottom=0;right=0;align=left;spacingLeft=6;" vertex="1" parent="yMSQ8i4fZYmCcwF7Yy7f-28">
          <mxGeometry x="30" width="220" height="30" as="geometry" />
        </mxCell>
        <mxCell id="yMSQ8i4fZYmCcwF7Yy7f-31" value="" style="shape=partialRectangle;collapsible=0;dropTarget=0;pointerEvents=0;fillColor=none;points=[[0,0.5],[1,0.5]];portConstraint=eastwest;top=0;left=0;right=0;bottom=0;" vertex="1" parent="1">
          <mxGeometry x="420" y="320" width="250" height="30" as="geometry" />
        </mxCell>
        <mxCell id="yMSQ8i4fZYmCcwF7Yy7f-32" value="" style="shape=partialRectangle;overflow=hidden;connectable=0;fillColor=none;top=0;left=0;bottom=0;right=0;" vertex="1" parent="yMSQ8i4fZYmCcwF7Yy7f-31">
          <mxGeometry width="30" height="30" as="geometry" />
        </mxCell>
        <mxCell id="yMSQ8i4fZYmCcwF7Yy7f-33" value="balance" style="shape=partialRectangle;overflow=hidden;connectable=0;fillColor=none;top=0;left=0;bottom=0;right=0;align=left;spacingLeft=6;" vertex="1" parent="yMSQ8i4fZYmCcwF7Yy7f-31">
          <mxGeometry x="30" width="220" height="30" as="geometry" />
        </mxCell>
        <mxCell id="yMSQ8i4fZYmCcwF7Yy7f-80" style="edgeStyle=orthogonalEdgeStyle;rounded=0;orthogonalLoop=1;jettySize=auto;html=1;exitX=0;exitY=0.5;exitDx=0;exitDy=0;entryX=1;entryY=0.5;entryDx=0;entryDy=0;" edge="1" parent="1" source="yMSQ8i4fZYmCcwF7Yy7f-63" target="yMSQ8i4fZYmCcwF7Yy7f-67">
          <mxGeometry relative="1" as="geometry" />
        </mxCell>
        <mxCell id="yMSQ8i4fZYmCcwF7Yy7f-63" value="" style="shape=partialRectangle;collapsible=0;dropTarget=0;pointerEvents=0;fillColor=none;top=0;left=0;bottom=0;right=0;points=[[0,0.5],[1,0.5]];portConstraint=eastwest;" vertex="1" parent="1">
          <mxGeometry x="420" y="620" width="250" height="30" as="geometry" />
        </mxCell>
        <mxCell id="yMSQ8i4fZYmCcwF7Yy7f-64" value="FK" style="shape=partialRectangle;connectable=0;fillColor=none;top=0;left=0;bottom=0;right=0;editable=1;overflow=hidden;" vertex="1" parent="yMSQ8i4fZYmCcwF7Yy7f-63">
          <mxGeometry width="30" height="30" as="geometry" />
        </mxCell>
        <mxCell id="yMSQ8i4fZYmCcwF7Yy7f-65" value="category_id" style="shape=partialRectangle;connectable=0;fillColor=none;top=0;left=0;bottom=0;right=0;align=left;spacingLeft=6;overflow=hidden;" vertex="1" parent="yMSQ8i4fZYmCcwF7Yy7f-63">
          <mxGeometry x="30" width="220" height="30" as="geometry" />
        </mxCell>
        <mxCell id="yMSQ8i4fZYmCcwF7Yy7f-66" value="Category" style="shape=table;startSize=30;container=1;collapsible=1;childLayout=tableLayout;fixedRows=1;rowLines=0;fontStyle=1;align=center;resizeLast=1;" vertex="1" parent="1">
          <mxGeometry x="112" y="450" width="180" height="160" as="geometry" />
        </mxCell>
        <mxCell id="yMSQ8i4fZYmCcwF7Yy7f-67" value="" style="shape=partialRectangle;collapsible=0;dropTarget=0;pointerEvents=0;fillColor=none;top=0;left=0;bottom=1;right=0;points=[[0,0.5],[1,0.5]];portConstraint=eastwest;" vertex="1" parent="yMSQ8i4fZYmCcwF7Yy7f-66">
          <mxGeometry y="30" width="180" height="30" as="geometry" />
        </mxCell>
        <mxCell id="yMSQ8i4fZYmCcwF7Yy7f-68" value="PK" style="shape=partialRectangle;connectable=0;fillColor=none;top=0;left=0;bottom=0;right=0;fontStyle=1;overflow=hidden;" vertex="1" parent="yMSQ8i4fZYmCcwF7Yy7f-67">
          <mxGeometry width="30" height="30" as="geometry" />
        </mxCell>
        <mxCell id="yMSQ8i4fZYmCcwF7Yy7f-69" value="category_id" style="shape=partialRectangle;connectable=0;fillColor=none;top=0;left=0;bottom=0;right=0;align=left;spacingLeft=6;fontStyle=5;overflow=hidden;" vertex="1" parent="yMSQ8i4fZYmCcwF7Yy7f-67">
          <mxGeometry x="30" width="150" height="30" as="geometry" />
        </mxCell>
        <mxCell id="yMSQ8i4fZYmCcwF7Yy7f-70" value="" style="shape=partialRectangle;collapsible=0;dropTarget=0;pointerEvents=0;fillColor=none;top=0;left=0;bottom=0;right=0;points=[[0,0.5],[1,0.5]];portConstraint=eastwest;" vertex="1" parent="yMSQ8i4fZYmCcwF7Yy7f-66">
          <mxGeometry y="60" width="180" height="30" as="geometry" />
        </mxCell>
        <mxCell id="yMSQ8i4fZYmCcwF7Yy7f-71" value="" style="shape=partialRectangle;connectable=0;fillColor=none;top=0;left=0;bottom=0;right=0;editable=1;overflow=hidden;" vertex="1" parent="yMSQ8i4fZYmCcwF7Yy7f-70">
          <mxGeometry width="30" height="30" as="geometry" />
        </mxCell>
        <mxCell id="yMSQ8i4fZYmCcwF7Yy7f-72" value="category_name" style="shape=partialRectangle;connectable=0;fillColor=none;top=0;left=0;bottom=0;right=0;align=left;spacingLeft=6;overflow=hidden;" vertex="1" parent="yMSQ8i4fZYmCcwF7Yy7f-70">
          <mxGeometry x="30" width="150" height="30" as="geometry" />
        </mxCell>
        <mxCell id="yMSQ8i4fZYmCcwF7Yy7f-73" value="" style="shape=partialRectangle;collapsible=0;dropTarget=0;pointerEvents=0;fillColor=none;top=0;left=0;bottom=0;right=0;points=[[0,0.5],[1,0.5]];portConstraint=eastwest;" vertex="1" parent="yMSQ8i4fZYmCcwF7Yy7f-66">
          <mxGeometry y="90" width="180" height="30" as="geometry" />
        </mxCell>
        <mxCell id="yMSQ8i4fZYmCcwF7Yy7f-74" value="" style="shape=partialRectangle;connectable=0;fillColor=none;top=0;left=0;bottom=0;right=0;editable=1;overflow=hidden;" vertex="1" parent="yMSQ8i4fZYmCcwF7Yy7f-73">
          <mxGeometry width="30" height="30" as="geometry" />
        </mxCell>
        <mxCell id="yMSQ8i4fZYmCcwF7Yy7f-75" value="category_icon" style="shape=partialRectangle;connectable=0;fillColor=none;top=0;left=0;bottom=0;right=0;align=left;spacingLeft=6;overflow=hidden;" vertex="1" parent="yMSQ8i4fZYmCcwF7Yy7f-73">
          <mxGeometry x="30" width="150" height="30" as="geometry" />
        </mxCell>
        <mxCell id="yMSQ8i4fZYmCcwF7Yy7f-76" value="" style="shape=partialRectangle;collapsible=0;dropTarget=0;pointerEvents=0;fillColor=none;top=0;left=0;bottom=0;right=0;points=[[0,0.5],[1,0.5]];portConstraint=eastwest;" vertex="1" parent="yMSQ8i4fZYmCcwF7Yy7f-66">
          <mxGeometry y="120" width="180" height="30" as="geometry" />
        </mxCell>
        <mxCell id="yMSQ8i4fZYmCcwF7Yy7f-77" value="" style="shape=partialRectangle;connectable=0;fillColor=none;top=0;left=0;bottom=0;right=0;editable=1;overflow=hidden;" vertex="1" parent="yMSQ8i4fZYmCcwF7Yy7f-76">
          <mxGeometry width="30" height="30" as="geometry" />
        </mxCell>
        <mxCell id="yMSQ8i4fZYmCcwF7Yy7f-78" value="Row 3" style="shape=partialRectangle;connectable=0;fillColor=none;top=0;left=0;bottom=0;right=0;align=left;spacingLeft=6;overflow=hidden;" vertex="1" parent="yMSQ8i4fZYmCcwF7Yy7f-76">
          <mxGeometry x="30" width="150" height="30" as="geometry" />
        </mxCell>
        <mxCell id="yMSQ8i4fZYmCcwF7Yy7f-90" value=" Buy" style="shape=table;startSize=30;container=1;collapsible=1;childLayout=tableLayout;fixedRows=1;rowLines=0;fontStyle=1;align=center;resizeLast=1;" vertex="1" parent="1">
          <mxGeometry x="760" y="130" width="180" height="180" as="geometry" />
        </mxCell>
        <mxCell id="yMSQ8i4fZYmCcwF7Yy7f-91" value="" style="shape=partialRectangle;collapsible=0;dropTarget=0;pointerEvents=0;fillColor=none;top=0;left=0;bottom=0;right=0;points=[[0,0.5],[1,0.5]];portConstraint=eastwest;" vertex="1" parent="yMSQ8i4fZYmCcwF7Yy7f-90">
          <mxGeometry y="30" width="180" height="30" as="geometry" />
        </mxCell>
        <mxCell id="yMSQ8i4fZYmCcwF7Yy7f-92" value="PK,FK1" style="shape=partialRectangle;connectable=0;fillColor=none;top=0;left=0;bottom=0;right=0;fontStyle=1;overflow=hidden;" vertex="1" parent="yMSQ8i4fZYmCcwF7Yy7f-91">
          <mxGeometry width="60" height="30" as="geometry" />
        </mxCell>
        <mxCell id="yMSQ8i4fZYmCcwF7Yy7f-93" value="customer_id" style="shape=partialRectangle;connectable=0;fillColor=none;top=0;left=0;bottom=0;right=0;align=left;spacingLeft=6;fontStyle=5;overflow=hidden;" vertex="1" parent="yMSQ8i4fZYmCcwF7Yy7f-91">
          <mxGeometry x="60" width="120" height="30" as="geometry" />
        </mxCell>
        <mxCell id="yMSQ8i4fZYmCcwF7Yy7f-94" value="" style="shape=partialRectangle;collapsible=0;dropTarget=0;pointerEvents=0;fillColor=none;top=0;left=0;bottom=1;right=0;points=[[0,0.5],[1,0.5]];portConstraint=eastwest;" vertex="1" parent="yMSQ8i4fZYmCcwF7Yy7f-90">
          <mxGeometry y="60" width="180" height="30" as="geometry" />
        </mxCell>
        <mxCell id="yMSQ8i4fZYmCcwF7Yy7f-95" value="PK,FK2" style="shape=partialRectangle;connectable=0;fillColor=none;top=0;left=0;bottom=0;right=0;fontStyle=1;overflow=hidden;" vertex="1" parent="yMSQ8i4fZYmCcwF7Yy7f-94">
          <mxGeometry width="60" height="30" as="geometry" />
        </mxCell>
        <mxCell id="yMSQ8i4fZYmCcwF7Yy7f-96" value="product_id" style="shape=partialRectangle;connectable=0;fillColor=none;top=0;left=0;bottom=0;right=0;align=left;spacingLeft=6;fontStyle=5;overflow=hidden;" vertex="1" parent="yMSQ8i4fZYmCcwF7Yy7f-94">
          <mxGeometry x="60" width="120" height="30" as="geometry" />
        </mxCell>
        <mxCell id="yMSQ8i4fZYmCcwF7Yy7f-97" value="" style="shape=partialRectangle;collapsible=0;dropTarget=0;pointerEvents=0;fillColor=none;top=0;left=0;bottom=0;right=0;points=[[0,0.5],[1,0.5]];portConstraint=eastwest;" vertex="1" parent="yMSQ8i4fZYmCcwF7Yy7f-90">
          <mxGeometry y="90" width="180" height="30" as="geometry" />
        </mxCell>
        <mxCell id="yMSQ8i4fZYmCcwF7Yy7f-98" value="" style="shape=partialRectangle;connectable=0;fillColor=none;top=0;left=0;bottom=0;right=0;editable=1;overflow=hidden;" vertex="1" parent="yMSQ8i4fZYmCcwF7Yy7f-97">
          <mxGeometry width="60" height="30" as="geometry" />
        </mxCell>
        <mxCell id="yMSQ8i4fZYmCcwF7Yy7f-99" value="amount" style="shape=partialRectangle;connectable=0;fillColor=none;top=0;left=0;bottom=0;right=0;align=left;spacingLeft=6;overflow=hidden;" vertex="1" parent="yMSQ8i4fZYmCcwF7Yy7f-97">
          <mxGeometry x="60" width="120" height="30" as="geometry" />
        </mxCell>
        <mxCell id="yMSQ8i4fZYmCcwF7Yy7f-100" value="" style="shape=partialRectangle;collapsible=0;dropTarget=0;pointerEvents=0;fillColor=none;top=0;left=0;bottom=0;right=0;points=[[0,0.5],[1,0.5]];portConstraint=eastwest;" vertex="1" parent="yMSQ8i4fZYmCcwF7Yy7f-90">
          <mxGeometry y="120" width="180" height="30" as="geometry" />
        </mxCell>
        <mxCell id="yMSQ8i4fZYmCcwF7Yy7f-101" value="" style="shape=partialRectangle;connectable=0;fillColor=none;top=0;left=0;bottom=0;right=0;editable=1;overflow=hidden;" vertex="1" parent="yMSQ8i4fZYmCcwF7Yy7f-100">
          <mxGeometry width="60" height="30" as="geometry" />
        </mxCell>
        <mxCell id="yMSQ8i4fZYmCcwF7Yy7f-102" value="status" style="shape=partialRectangle;connectable=0;fillColor=none;top=0;left=0;bottom=0;right=0;align=left;spacingLeft=6;overflow=hidden;" vertex="1" parent="yMSQ8i4fZYmCcwF7Yy7f-100">
          <mxGeometry x="60" width="120" height="30" as="geometry" />
        </mxCell>
        <mxCell id="yMSQ8i4fZYmCcwF7Yy7f-119" style="edgeStyle=orthogonalEdgeStyle;rounded=0;orthogonalLoop=1;jettySize=auto;html=1;exitX=0;exitY=0.5;exitDx=0;exitDy=0;entryX=1;entryY=0.5;entryDx=0;entryDy=0;" edge="1" parent="1" source="yMSQ8i4fZYmCcwF7Yy7f-91" target="C-vyLk0tnHw3VtMMgP7b-24">
          <mxGeometry relative="1" as="geometry" />
        </mxCell>
        <mxCell id="yMSQ8i4fZYmCcwF7Yy7f-120" style="edgeStyle=orthogonalEdgeStyle;rounded=0;orthogonalLoop=1;jettySize=auto;html=1;exitX=0;exitY=0.5;exitDx=0;exitDy=0;entryX=1;entryY=0.5;entryDx=0;entryDy=0;" edge="1" parent="1" source="yMSQ8i4fZYmCcwF7Yy7f-94" target="yMSQ8i4fZYmCcwF7Yy7f-2">
          <mxGeometry relative="1" as="geometry" />
        </mxCell>
        <mxCell id="yMSQ8i4fZYmCcwF7Yy7f-124" value="Cart" style="shape=table;startSize=30;container=1;collapsible=1;childLayout=tableLayout;fixedRows=1;rowLines=0;fontStyle=1;align=center;resizeLast=1;" vertex="1" parent="1">
          <mxGeometry x="140" y="130" width="180" height="180" as="geometry" />
        </mxCell>
        <mxCell id="yMSQ8i4fZYmCcwF7Yy7f-125" value="" style="shape=partialRectangle;collapsible=0;dropTarget=0;pointerEvents=0;fillColor=none;top=0;left=0;bottom=0;right=0;points=[[0,0.5],[1,0.5]];portConstraint=eastwest;" vertex="1" parent="yMSQ8i4fZYmCcwF7Yy7f-124">
          <mxGeometry y="30" width="180" height="30" as="geometry" />
        </mxCell>
        <mxCell id="yMSQ8i4fZYmCcwF7Yy7f-126" value="PK,FK1" style="shape=partialRectangle;connectable=0;fillColor=none;top=0;left=0;bottom=0;right=0;fontStyle=1;overflow=hidden;" vertex="1" parent="yMSQ8i4fZYmCcwF7Yy7f-125">
          <mxGeometry width="60" height="30" as="geometry" />
        </mxCell>
        <mxCell id="yMSQ8i4fZYmCcwF7Yy7f-127" value="customer_id" style="shape=partialRectangle;connectable=0;fillColor=none;top=0;left=0;bottom=0;right=0;align=left;spacingLeft=6;fontStyle=5;overflow=hidden;" vertex="1" parent="yMSQ8i4fZYmCcwF7Yy7f-125">
          <mxGeometry x="60" width="120" height="30" as="geometry" />
        </mxCell>
        <mxCell id="yMSQ8i4fZYmCcwF7Yy7f-128" value="" style="shape=partialRectangle;collapsible=0;dropTarget=0;pointerEvents=0;fillColor=none;top=0;left=0;bottom=1;right=0;points=[[0,0.5],[1,0.5]];portConstraint=eastwest;" vertex="1" parent="yMSQ8i4fZYmCcwF7Yy7f-124">
          <mxGeometry y="60" width="180" height="30" as="geometry" />
        </mxCell>
        <mxCell id="yMSQ8i4fZYmCcwF7Yy7f-129" value="PK,FK2" style="shape=partialRectangle;connectable=0;fillColor=none;top=0;left=0;bottom=0;right=0;fontStyle=1;overflow=hidden;" vertex="1" parent="yMSQ8i4fZYmCcwF7Yy7f-128">
          <mxGeometry width="60" height="30" as="geometry" />
        </mxCell>
        <mxCell id="yMSQ8i4fZYmCcwF7Yy7f-130" value="product_id" style="shape=partialRectangle;connectable=0;fillColor=none;top=0;left=0;bottom=0;right=0;align=left;spacingLeft=6;fontStyle=5;overflow=hidden;" vertex="1" parent="yMSQ8i4fZYmCcwF7Yy7f-128">
          <mxGeometry x="60" width="120" height="30" as="geometry" />
        </mxCell>
        <mxCell id="yMSQ8i4fZYmCcwF7Yy7f-131" value="" style="shape=partialRectangle;collapsible=0;dropTarget=0;pointerEvents=0;fillColor=none;top=0;left=0;bottom=0;right=0;points=[[0,0.5],[1,0.5]];portConstraint=eastwest;" vertex="1" parent="yMSQ8i4fZYmCcwF7Yy7f-124">
          <mxGeometry y="90" width="180" height="30" as="geometry" />
        </mxCell>
        <mxCell id="yMSQ8i4fZYmCcwF7Yy7f-132" value="" style="shape=partialRectangle;connectable=0;fillColor=none;top=0;left=0;bottom=0;right=0;editable=1;overflow=hidden;" vertex="1" parent="yMSQ8i4fZYmCcwF7Yy7f-131">
          <mxGeometry width="60" height="30" as="geometry" />
        </mxCell>
        <mxCell id="yMSQ8i4fZYmCcwF7Yy7f-133" value="amount" style="shape=partialRectangle;connectable=0;fillColor=none;top=0;left=0;bottom=0;right=0;align=left;spacingLeft=6;overflow=hidden;" vertex="1" parent="yMSQ8i4fZYmCcwF7Yy7f-131">
          <mxGeometry x="60" width="120" height="30" as="geometry" />
        </mxCell>
        <mxCell id="yMSQ8i4fZYmCcwF7Yy7f-134" value="" style="shape=partialRectangle;collapsible=0;dropTarget=0;pointerEvents=0;fillColor=none;top=0;left=0;bottom=0;right=0;points=[[0,0.5],[1,0.5]];portConstraint=eastwest;" vertex="1" parent="yMSQ8i4fZYmCcwF7Yy7f-124">
          <mxGeometry y="120" width="180" height="30" as="geometry" />
        </mxCell>
        <mxCell id="yMSQ8i4fZYmCcwF7Yy7f-135" value="" style="shape=partialRectangle;connectable=0;fillColor=none;top=0;left=0;bottom=0;right=0;editable=1;overflow=hidden;" vertex="1" parent="yMSQ8i4fZYmCcwF7Yy7f-134">
          <mxGeometry width="60" height="30" as="geometry" />
        </mxCell>
        <mxCell id="yMSQ8i4fZYmCcwF7Yy7f-136" value="status" style="shape=partialRectangle;connectable=0;fillColor=none;top=0;left=0;bottom=0;right=0;align=left;spacingLeft=6;overflow=hidden;" vertex="1" parent="yMSQ8i4fZYmCcwF7Yy7f-134">
          <mxGeometry x="60" width="120" height="30" as="geometry" />
        </mxCell>
        <mxCell id="yMSQ8i4fZYmCcwF7Yy7f-137" value="" style="edgeStyle=entityRelationEdgeStyle;fontSize=12;html=1;endArrow=ERoneToMany;entryX=1;entryY=0.061;entryDx=0;entryDy=0;entryPerimeter=0;exitX=-0.008;exitY=0.07;exitDx=0;exitDy=0;exitPerimeter=0;" edge="1" parent="1" source="C-vyLk0tnHw3VtMMgP7b-23" target="yMSQ8i4fZYmCcwF7Yy7f-124">
          <mxGeometry width="100" height="100" relative="1" as="geometry">
            <mxPoint x="470" y="390" as="sourcePoint" />
            <mxPoint x="570" y="290" as="targetPoint" />
          </mxGeometry>
        </mxCell>
      </root>
    </mxGraphModel>
  </diagram>
</mxfile>
